<?xml version="1.0" standalone="no"?>
<!DOCTYPE svg PUBLIC "-//W3C//DTD SVG 20010904//EN"
 "http://www.w3.org/TR/2001/REC-SVG-20010904/DTD/svg10.dtd">
<svg version="1.0" xmlns="http://www.w3.org/2000/svg"
 width="100.000000pt" height="100.000000pt" viewBox="0 0 100.000000 100.000000"
 preserveAspectRatio="xMidYMid meet">
<metadata>
Created by potrace 1.11, written by Peter Selinger 2001-2013
</metadata>
<g transform="translate(0.000000,100.000000) scale(0.100000,-0.100000)"
fill="#000000" stroke="none">
<path d="M0 500 l0 -500 500 0 500 0 0 500 0 500 -500 0 -500 0 0 -500z m378
53 c-3 -272 -5 -312 -21 -340 -24 -44 -60 -66 -110 -67 -38 -1 -41 1 -48 32
-6 31 -5 32 27 32 23 0 38 7 53 26 20 26 21 38 21 325 l0 299 41 0 40 0 -3
-307z m254 147 c20 -6 49 -25 63 -42 23 -27 26 -39 22 -72 -4 -28 -15 -49 -33
-64 -14 -13 -25 -24 -23 -25 2 -1 18 -9 34 -17 17 -9 39 -32 50 -52 18 -35 19
-40 5 -80 -23 -65 -61 -82 -192 -87 l-108 -3 0 226 0 226 73 0 c39 0 89 -5
109 -10z"/>
<path d="M510 585 l0 -65 50 0 c59 0 90 24 90 69 0 40 -32 61 -92 61 l-48 0 0
-65z"/>
<path d="M510 390 l0 -70 64 0 c76 0 116 24 116 70 0 46 -40 70 -116 70 l-64
0 0 -70z"/>
</g>
</svg>
